<svg width="240" height="240" viewBox="0 0 100 100" xmlns="http://www.w3.org/2000/svg">
    <!-- Starburst Background (The Supernova) -->
    <path fill="#7F52FF" d="M50,10 L55,40 L85,35 L65,55 L90,80 L55,70 L50,95 L45,70 L10,80 L35,55 L15,35 L45,40 Z" />
    
    <!-- Outer Glow Circle (33% Opacity White) -->
    <path fill="#FFFFFF" fill-opacity="0.33" d="M50,50m-35,0a35,35 0,1 1,70 0a35,35 0,1 1,-70 0" />

    <!-- Inner Core Circle -->
    <path fill="#2196F3" d="M50,50m-20,0a20,20 0,1 1,40 0a20,20 0,1 1,-40 0" />

    <!-- Code Brackets in the center -->
    <path stroke="#FFFFFF" stroke-width="2" fill="none" d="M38,42 L32,50 L38,58 M62,42 L68,50 L62,58 M48,40 L52,60" />
</svg>